<svg xmlns="http://www.w3.org/2000/svg" viewBox="0 0 1050.06 214.56"><defs><style>.cls-1{fill:#fff;}</style></defs><g id="Layer_2" data-name="Layer 2"><g id="Layer_1-2" data-name="Layer 1"><path class="cls-1" d="M70,29V184.56a30,30,0,0,1-30,30H30a30,30,0,0,1-30-30V39H30V181.56a5,5,0,0,0,10,0V29H0V0H70Z"/><path class="cls-1" d="M150,214.56H110a30,30,0,0,1-30-30V0h30V181.56a5,5,0,0,0,5,5h5V0h30Z"/><path class="cls-1" d="M230,184.56a30,30,0,0,1-30,30H160V0h30V186.56h5a5,5,0,0,0,5-5V39h30Z"/><path class="cls-1" d="M310,184.56a30,30,0,0,1-30,30H270a30,30,0,0,1-30-30V29H200V0h70V181.56a5,5,0,0,0,10,0V0h30Z"/><path class="cls-1" d="M770.06,29V184.56a30,30,0,0,1-30,30h-10a30,30,0,0,1-30-30V39h30V181.56a5,5,0,0,0,10,0V29h-40V0h70Z"/><path class="cls-1" d="M850.06,214.56h-40a30,30,0,0,1-30-30V0h30V181.56a5,5,0,0,0,5,5h5V0h30Z"/><rect class="cls-1" x="860.06" width="30" height="214.56"/><path class="cls-1" d="M970.06,29V97.28h-30V29h-10V186.56h5a5,5,0,0,0,5-5V107.28h30v77.28a30,30,0,0,1-30,30h-40V0h70Z"/><path class="cls-1" d="M1020.06,0h-40V184.56a30,30,0,0,0,30,30h10a30,30,0,0,0,30-30V107.28h-30v74.28a5,5,0,0,1-10,0V97.28h40V0Zm0,67.92h-10V28.64h10Z"/></g></g></svg>